<svg width="142" height="33" viewBox="0 0 142 33" fill="none" xmlns="http://www.w3.org/2000/svg">
<path d="M17.48 10.48V12.76C15.92 11 13.68 10.16 11.04 10.16C4.96 10.16 0.28 14.48 0.28 21.24C0.28 28 4.96 32.32 11.04 32.32C13.92 32.32 16.2 31.4 17.76 29.52V32H23.72V10.48H17.48ZM12.12 27.2C9 27.2 6.6 24.96 6.6 21.24C6.6 17.52 9 15.28 12.12 15.28C15.2 15.28 17.6 17.52 17.6 21.24C17.6 24.96 15.2 27.2 12.12 27.2ZM45.1772 2.32V12.76C43.6172 11 41.3772 10.16 38.7372 10.16C32.6572 10.16 27.9772 14.48 27.9772 21.24C27.9772 28 32.6572 32.32 38.7372 32.32C41.6172 32.32 43.8972 31.4 45.4572 29.52V32H51.4172V2.32H45.1772ZM39.8172 27.2C36.6972 27.2 34.2972 24.96 34.2972 21.24C34.2972 17.52 36.6972 15.28 39.8172 15.28C42.8972 15.28 45.2972 17.52 45.2972 21.24C45.2972 24.96 42.8972 27.2 39.8172 27.2ZM60.3125 7.48C62.6325 7.48 64.1925 5.96 64.1925 3.88C64.1925 1.96 62.6325 0.519998 60.3125 0.519998C57.9925 0.519998 56.4325 2.04 56.4325 4C56.4325 5.96 57.9925 7.48 60.3125 7.48ZM57.1925 32H63.4325V10.48H57.1925V32ZM84.9038 2.32V12.76C83.3438 11 81.1038 10.16 78.4638 10.16C72.3838 10.16 67.7038 14.48 67.7038 21.24C67.7038 28 72.3838 32.32 78.4638 32.32C81.3438 32.32 83.6238 31.4 85.1838 29.52V32H91.1438V2.32H84.9038ZM79.5438 27.2C76.4238 27.2 74.0238 24.96 74.0238 21.24C74.0238 17.52 76.4238 15.28 79.5438 15.28C82.6238 15.28 85.0238 17.52 85.0238 21.24C85.0238 24.96 82.6238 27.2 79.5438 27.2ZM112.519 10.48V12.76C110.959 11 108.719 10.16 106.079 10.16C99.9991 10.16 95.3191 14.48 95.3191 21.24C95.3191 28 99.9991 32.32 106.079 32.32C108.959 32.32 111.239 31.4 112.799 29.52V32H118.759V10.48H112.519ZM107.159 27.2C104.039 27.2 101.639 24.96 101.639 21.24C101.639 17.52 104.039 15.28 107.159 15.28C110.239 15.28 112.639 17.52 112.639 21.24C112.639 24.96 110.239 27.2 107.159 27.2ZM131.776 32.32C138.216 32.32 141.936 29.48 141.936 25.48C141.936 17 128.936 20.56 128.936 16.88C128.936 15.76 130.136 14.88 132.936 14.88C134.896 14.88 137.016 15.28 139.136 16.48L141.216 12.04C139.176 10.84 135.896 10.16 132.936 10.16C126.656 10.16 122.976 13.04 122.976 17.12C122.976 25.72 135.976 22.12 135.976 25.64C135.976 26.84 134.896 27.6 132.016 27.6C129.376 27.6 126.456 26.76 124.536 25.52L122.456 30C124.456 31.32 128.136 32.32 131.776 32.32Z" fill="white"/>
</svg>
